# xmcd CD database file
#
# Track frame offsets:
#        150
#        16275
#        45825
#        72600
#        93955
#        108137
#        133423
#        149196
#
# Disc length: 2250 seconds
#
# Revision: 0
# Processed by: cddbd v1.5.2PL0 Copyright (c) Steve Scherf et al.
# Submitted via: CUERipper 2.1.6
#
DISCID=7108c808
DTITLE=Jarek Szczudłowski - Jarek Szczudłowski
DYEAR=1900
DGENRE=
TTITLE0=Lady of dreams
TTITLE1=Samotność wielkich miast
TTITLE2=All your lies
TTITLE3=Niech się spełnią Twoje sny
TTITLE4=Home Alone
TTITLE5=Ludzie są tylko ludźmi
TTITLE6=Her fireplace
TTITLE7=Dreamer
EXTD=
EXTT0=
EXTT1=
EXTT2=
EXTT3=
EXTT4=
EXTT5=
EXTT6=
EXTT7=
PLAYORDER=
